<mxfile host="www.draw.io" modified="2020-01-18T02:42:14.224Z" agent="Mozilla/5.0 (Windows NT 10.0; WOW64) AppleWebKit/537.36 (KHTML, like Gecko) Chrome/63.0.3239.26 Safari/537.36 Core/1.63.6788.400 QQBrowser/10.3.2843.400" etag="NrZkbQnvqhq1FP0ud5os" version="12.5.5" type="github">
  <diagram id="uVdVUegfJ4Co0dEcWwCi" name="Page-1">
    <mxGraphModel dx="880" dy="691" grid="1" gridSize="10" guides="1" tooltips="1" connect="1" arrows="1" fold="1" page="1" pageScale="1" pageWidth="3000" pageHeight="3000" math="0" shadow="0">
      <root>
        <mxCell id="0"/>
        <mxCell id="1" parent="0"/>
        <mxCell id="xN7cwKIfn4v0KPfY66kA-1" value="UserInfo（用户信息）" style="swimlane;fontStyle=0;childLayout=stackLayout;horizontal=1;startSize=26;fillColor=#e0e0e0;horizontalStack=0;resizeParent=1;resizeParentMax=0;resizeLast=0;collapsible=1;marginBottom=0;swimlaneFillColor=#ffffff;align=center;fontSize=14;" parent="1" vertex="1" collapsed="1">
          <mxGeometry x="805" y="860" width="170" height="26" as="geometry">
            <mxRectangle x="805" y="848" width="160" height="52" as="alternateBounds"/>
          </mxGeometry>
        </mxCell>
        <mxCell id="xN7cwKIfn4v0KPfY66kA-2" value="GroupInfo（组信息）" style="swimlane;fontStyle=0;childLayout=stackLayout;horizontal=1;startSize=26;fillColor=#e0e0e0;horizontalStack=0;resizeParent=1;resizeParentMax=0;resizeLast=0;collapsible=1;marginBottom=0;swimlaneFillColor=#ffffff;align=center;fontSize=14;" parent="1" vertex="1" collapsed="1">
          <mxGeometry x="822.5" y="1060" width="135" height="26" as="geometry">
            <mxRectangle x="805" y="1056.5" width="160" height="52" as="alternateBounds"/>
          </mxGeometry>
        </mxCell>
        <mxCell id="xN7cwKIfn4v0KPfY66kA-3" value="ActionInfo（权限信息）" style="swimlane;fontStyle=0;childLayout=stackLayout;horizontal=1;startSize=26;fillColor=#e0e0e0;horizontalStack=0;resizeParent=1;resizeParentMax=0;resizeLast=0;collapsible=1;marginBottom=0;swimlaneFillColor=#ffffff;align=center;fontSize=14;" parent="1" vertex="1" collapsed="1">
          <mxGeometry x="320" y="431" width="150" height="26" as="geometry">
            <mxRectangle x="380" y="418" width="160" height="52" as="alternateBounds"/>
          </mxGeometry>
        </mxCell>
        <mxCell id="xN7cwKIfn4v0KPfY66kA-4" value="" style="fontSize=12;html=1;endArrow=ERoneToMany;entryX=0.5;entryY=1;entryDx=0;entryDy=0;exitX=0.5;exitY=0;exitDx=0;exitDy=0;" parent="1" source="xN7cwKIfn4v0KPfY66kA-2" target="xN7cwKIfn4v0KPfY66kA-1" edge="1">
          <mxGeometry width="100" height="100" relative="1" as="geometry">
            <mxPoint x="213" y="1234.5" as="sourcePoint"/>
            <mxPoint x="313" y="1134.5" as="targetPoint"/>
          </mxGeometry>
        </mxCell>
        <mxCell id="xN7cwKIfn4v0KPfY66kA-5" value="RoleInfo（角色信息）" style="swimlane;fontStyle=0;childLayout=stackLayout;horizontal=1;startSize=26;fillColor=#e0e0e0;horizontalStack=0;resizeParent=1;resizeParentMax=0;resizeLast=0;collapsible=1;marginBottom=0;swimlaneFillColor=#ffffff;align=center;fontSize=14;" parent="1" vertex="1" collapsed="1">
          <mxGeometry x="1215" y="430" width="145" height="26" as="geometry">
            <mxRectangle x="1215" y="418" width="160" height="52" as="alternateBounds"/>
          </mxGeometry>
        </mxCell>
        <mxCell id="xN7cwKIfn4v0KPfY66kA-6" value="R_UserInfo_RoleInfo" style="swimlane;fontStyle=0;childLayout=stackLayout;horizontal=1;startSize=26;fillColor=#e0e0e0;horizontalStack=0;resizeParent=1;resizeParentMax=0;resizeLast=0;collapsible=1;marginBottom=0;swimlaneFillColor=#ffffff;align=center;fontSize=14;" parent="1" vertex="1" collapsed="1">
          <mxGeometry x="1055" y="615" width="160" height="26" as="geometry">
            <mxRectangle x="1055" y="615" width="160" height="52" as="alternateBounds"/>
          </mxGeometry>
        </mxCell>
        <mxCell id="xN7cwKIfn4v0KPfY66kA-7" value="" style="fontSize=12;html=1;endArrow=ERoneToMany;entryX=0.5;entryY=1;entryDx=0;entryDy=0;exitX=0.569;exitY=-0.005;exitDx=0;exitDy=0;exitPerimeter=0;" parent="1" source="xN7cwKIfn4v0KPfY66kA-6" target="xN7cwKIfn4v0KPfY66kA-5" edge="1">
          <mxGeometry width="100" height="100" relative="1" as="geometry">
            <mxPoint x="1099.5" y="848" as="sourcePoint"/>
            <mxPoint x="1099.5" y="691.5" as="targetPoint"/>
          </mxGeometry>
        </mxCell>
        <mxCell id="xN7cwKIfn4v0KPfY66kA-8" value="" style="fontSize=12;html=1;endArrow=ERoneToMany;entryX=0.75;entryY=0;entryDx=0;entryDy=0;exitX=0.5;exitY=1;exitDx=0;exitDy=0;" parent="1" source="xN7cwKIfn4v0KPfY66kA-6" target="xN7cwKIfn4v0KPfY66kA-1" edge="1">
          <mxGeometry width="100" height="100" relative="1" as="geometry">
            <mxPoint x="1121.04" y="624.7399999999998" as="sourcePoint"/>
            <mxPoint x="1305" y="480" as="targetPoint"/>
          </mxGeometry>
        </mxCell>
        <mxCell id="xN7cwKIfn4v0KPfY66kA-9" value="R_UserInfo_ActionInfo（用户权限关联信息）" style="swimlane;fontStyle=0;childLayout=stackLayout;horizontal=1;startSize=26;fillColor=#e0e0e0;horizontalStack=0;resizeParent=1;resizeParentMax=0;resizeLast=0;collapsible=1;marginBottom=0;swimlaneFillColor=#ffffff;align=center;fontSize=14;" parent="1" vertex="1" collapsed="1">
          <mxGeometry x="440" y="615" width="290" height="26" as="geometry">
            <mxRectangle x="440" y="615" width="290" height="52" as="alternateBounds"/>
          </mxGeometry>
        </mxCell>
        <mxCell id="xN7cwKIfn4v0KPfY66kA-10" value="" style="fontSize=12;html=1;endArrow=ERoneToMany;entryX=0.25;entryY=0;entryDx=0;entryDy=0;exitX=0.5;exitY=1;exitDx=0;exitDy=0;" parent="1" source="xN7cwKIfn4v0KPfY66kA-9" target="xN7cwKIfn4v0KPfY66kA-1" edge="1">
          <mxGeometry width="100" height="100" relative="1" as="geometry">
            <mxPoint x="1110" y="677" as="sourcePoint"/>
            <mxPoint x="960" y="858" as="targetPoint"/>
          </mxGeometry>
        </mxCell>
        <mxCell id="xN7cwKIfn4v0KPfY66kA-11" value="" style="fontSize=12;html=1;endArrow=ERoneToMany;entryX=0.5;entryY=1;entryDx=0;entryDy=0;exitX=0.5;exitY=0;exitDx=0;exitDy=0;" parent="1" source="xN7cwKIfn4v0KPfY66kA-9" target="xN7cwKIfn4v0KPfY66kA-3" edge="1">
          <mxGeometry width="100" height="100" relative="1" as="geometry">
            <mxPoint x="1121.04" y="624.7399999999998" as="sourcePoint"/>
            <mxPoint x="1305" y="480" as="targetPoint"/>
          </mxGeometry>
        </mxCell>
        <mxCell id="xN7cwKIfn4v0KPfY66kA-12" value="R_ActionInfo_RoleInfo" style="swimlane;fontStyle=0;childLayout=stackLayout;horizontal=1;startSize=26;fillColor=#e0e0e0;horizontalStack=0;resizeParent=1;resizeParentMax=0;resizeLast=0;collapsible=1;marginBottom=0;swimlaneFillColor=#ffffff;align=center;fontSize=14;" parent="1" vertex="1" collapsed="1">
          <mxGeometry x="800" y="430" width="170" height="26" as="geometry">
            <mxRectangle x="800" y="430" width="170" height="52" as="alternateBounds"/>
          </mxGeometry>
        </mxCell>
        <mxCell id="xN7cwKIfn4v0KPfY66kA-13" value="" style="fontSize=12;html=1;endArrow=ERoneToMany;entryX=1;entryY=0.5;entryDx=0;entryDy=0;exitX=0;exitY=0.5;exitDx=0;exitDy=0;" parent="1" source="xN7cwKIfn4v0KPfY66kA-12" target="xN7cwKIfn4v0KPfY66kA-3" edge="1">
          <mxGeometry width="100" height="100" relative="1" as="geometry">
            <mxPoint x="645" y="625" as="sourcePoint"/>
            <mxPoint x="470" y="480" as="targetPoint"/>
          </mxGeometry>
        </mxCell>
        <mxCell id="xN7cwKIfn4v0KPfY66kA-14" value="" style="fontSize=12;html=1;endArrow=ERoneToMany;entryX=0;entryY=0.5;entryDx=0;entryDy=0;exitX=1;exitY=0.5;exitDx=0;exitDy=0;" parent="1" source="xN7cwKIfn4v0KPfY66kA-12" target="xN7cwKIfn4v0KPfY66kA-5" edge="1">
          <mxGeometry width="100" height="100" relative="1" as="geometry">
            <mxPoint x="810" y="454" as="sourcePoint"/>
            <mxPoint x="550" y="454" as="targetPoint"/>
          </mxGeometry>
        </mxCell>
        <mxCell id="xN7cwKIfn4v0KPfY66kA-15" value="UserInfoExt（用户额外信息）" style="swimlane;fontStyle=0;childLayout=stackLayout;horizontal=1;startSize=26;fillColor=#e0e0e0;horizontalStack=0;resizeParent=1;resizeParentMax=0;resizeLast=0;collapsible=1;marginBottom=0;swimlaneFillColor=#ffffff;align=center;fontSize=14;" parent="1" vertex="1" collapsed="1">
          <mxGeometry x="350" y="860" width="220" height="26" as="geometry">
            <mxRectangle x="350" y="845" width="190" height="55" as="alternateBounds"/>
          </mxGeometry>
        </mxCell>
        <mxCell id="xN7cwKIfn4v0KPfY66kA-16" value="" style="edgeStyle=entityRelationEdgeStyle;fontSize=12;html=1;endArrow=ERmandOne;startArrow=ERmandOne;entryX=0;entryY=0.5;entryDx=0;entryDy=0;exitX=1;exitY=0.5;exitDx=0;exitDy=0;" parent="1" source="xN7cwKIfn4v0KPfY66kA-15" target="xN7cwKIfn4v0KPfY66kA-1" edge="1">
          <mxGeometry width="100" height="100" relative="1" as="geometry">
            <mxPoint x="300" y="1225" as="sourcePoint"/>
            <mxPoint x="400" y="1125" as="targetPoint"/>
          </mxGeometry>
        </mxCell>
        <mxCell id="xN7cwKIfn4v0KPfY66kA-17" value="&lt;font style=&quot;font-size: 24px&quot;&gt;用户权限表结构关系&lt;/font&gt;" style="text;html=1;strokeColor=#d6b656;fillColor=#fff2cc;align=center;verticalAlign=middle;whiteSpace=wrap;rounded=0;" parent="1" vertex="1">
          <mxGeometry x="743.5" y="290" width="283" height="50" as="geometry"/>
        </mxCell>
        <mxCell id="xN7cwKIfn4v0KPfY66kA-18" value="LogInfo" style="swimlane;fontStyle=0;childLayout=stackLayout;horizontal=1;startSize=26;fillColor=#e0e0e0;horizontalStack=0;resizeParent=1;resizeParentMax=0;resizeLast=0;collapsible=1;marginBottom=0;swimlaneFillColor=#ffffff;align=center;fontSize=14;" parent="1" vertex="1" collapsed="1">
          <mxGeometry x="1215" y="846.5" width="80" height="26" as="geometry">
            <mxRectangle x="1215" y="846.5" width="160" height="55" as="alternateBounds"/>
          </mxGeometry>
        </mxCell>
        <mxCell id="n2ARnpzjk5nC_u5jBv1w-1" value="ReagentCatalogNumInfo（试剂目录号信息）" style="swimlane;fontStyle=0;childLayout=stackLayout;horizontal=1;startSize=26;fillColor=#e0e0e0;horizontalStack=0;resizeParent=1;resizeParentMax=0;resizeLast=0;collapsible=1;marginBottom=0;swimlaneFillColor=#ffffff;align=center;fontSize=14;" vertex="1" collapsed="1" parent="1">
          <mxGeometry x="425" y="1330" width="290" height="26" as="geometry">
            <mxRectangle x="320" y="1150" width="190" height="52" as="alternateBounds"/>
          </mxGeometry>
        </mxCell>
        <mxCell id="n2ARnpzjk5nC_u5jBv1w-5" value="PrdSpecInfo（二抗规格信息）" style="swimlane;fontStyle=0;childLayout=stackLayout;horizontal=1;startSize=26;fillColor=#e0e0e0;horizontalStack=0;resizeParent=1;resizeParentMax=0;resizeLast=0;collapsible=1;marginBottom=0;swimlaneFillColor=#ffffff;align=center;fontSize=14;" vertex="1" collapsed="1" parent="1">
          <mxGeometry x="425" y="1430" width="290" height="26" as="geometry">
            <mxRectangle x="320" y="1150" width="190" height="52" as="alternateBounds"/>
          </mxGeometry>
        </mxCell>
        <mxCell id="n2ARnpzjk5nC_u5jBv1w-7" value="ClosedReagentInfo（封闭一抗信息）" style="swimlane;fontStyle=0;childLayout=stackLayout;horizontal=1;startSize=26;fillColor=#e0e0e0;horizontalStack=0;resizeParent=1;resizeParentMax=0;resizeLast=0;collapsible=1;marginBottom=0;swimlaneFillColor=#ffffff;align=center;fontSize=14;" vertex="1" collapsed="1" parent="1">
          <mxGeometry x="420" y="1530" width="290" height="26" as="geometry">
            <mxRectangle x="320" y="1150" width="190" height="52" as="alternateBounds"/>
          </mxGeometry>
        </mxCell>
        <mxCell id="n2ARnpzjk5nC_u5jBv1w-8" value="BarcodeRecordInfo（条码记录信息）" style="swimlane;fontStyle=0;childLayout=stackLayout;horizontal=1;startSize=26;fillColor=#e0e0e0;horizontalStack=0;resizeParent=1;resizeParentMax=0;resizeLast=0;collapsible=1;marginBottom=0;swimlaneFillColor=#ffffff;align=center;fontSize=14;" vertex="1" collapsed="1" parent="1">
          <mxGeometry x="835" y="1430" width="290" height="26" as="geometry">
            <mxRectangle x="320" y="1150" width="190" height="52" as="alternateBounds"/>
          </mxGeometry>
        </mxCell>
        <mxCell id="n2ARnpzjk5nC_u5jBv1w-9" value="" style="endArrow=none;html=1;rounded=0;exitX=1;exitY=0.5;exitDx=0;exitDy=0;entryX=0;entryY=0;entryDx=0;entryDy=0;" edge="1" parent="1" source="n2ARnpzjk5nC_u5jBv1w-1" target="n2ARnpzjk5nC_u5jBv1w-8">
          <mxGeometry relative="1" as="geometry">
            <mxPoint x="675" y="1410" as="sourcePoint"/>
            <mxPoint x="835" y="1410" as="targetPoint"/>
            <Array as="points"/>
          </mxGeometry>
        </mxCell>
        <mxCell id="n2ARnpzjk5nC_u5jBv1w-10" value="配置信息" style="text;html=1;align=center;verticalAlign=middle;resizable=0;points=[];labelBackgroundColor=#ffffff;" vertex="1" connectable="0" parent="n2ARnpzjk5nC_u5jBv1w-9">
          <mxGeometry x="0.0803" y="-1" relative="1" as="geometry">
            <mxPoint as="offset"/>
          </mxGeometry>
        </mxCell>
        <mxCell id="n2ARnpzjk5nC_u5jBv1w-11" value="" style="endArrow=none;html=1;rounded=0;exitX=1;exitY=0.5;exitDx=0;exitDy=0;entryX=0;entryY=0.5;entryDx=0;entryDy=0;" edge="1" parent="1" source="n2ARnpzjk5nC_u5jBv1w-5" target="n2ARnpzjk5nC_u5jBv1w-8">
          <mxGeometry relative="1" as="geometry">
            <mxPoint x="725" y="1353" as="sourcePoint"/>
            <mxPoint x="825" y="1440" as="targetPoint"/>
            <Array as="points"/>
          </mxGeometry>
        </mxCell>
        <mxCell id="n2ARnpzjk5nC_u5jBv1w-12" value="配置信息" style="text;html=1;align=center;verticalAlign=middle;resizable=0;points=[];labelBackgroundColor=#ffffff;" vertex="1" connectable="0" parent="n2ARnpzjk5nC_u5jBv1w-11">
          <mxGeometry x="0.0803" y="-1" relative="1" as="geometry">
            <mxPoint as="offset"/>
          </mxGeometry>
        </mxCell>
        <mxCell id="n2ARnpzjk5nC_u5jBv1w-13" value="" style="endArrow=none;html=1;rounded=0;exitX=1;exitY=0.5;exitDx=0;exitDy=0;entryX=0;entryY=1;entryDx=0;entryDy=0;" edge="1" parent="1" source="n2ARnpzjk5nC_u5jBv1w-7" target="n2ARnpzjk5nC_u5jBv1w-8">
          <mxGeometry relative="1" as="geometry">
            <mxPoint x="725" y="1453" as="sourcePoint"/>
            <mxPoint x="845" y="1453" as="targetPoint"/>
            <Array as="points"/>
          </mxGeometry>
        </mxCell>
        <mxCell id="n2ARnpzjk5nC_u5jBv1w-14" value="配置信息" style="text;html=1;align=center;verticalAlign=middle;resizable=0;points=[];labelBackgroundColor=#ffffff;" vertex="1" connectable="0" parent="n2ARnpzjk5nC_u5jBv1w-13">
          <mxGeometry x="0.0803" y="-1" relative="1" as="geometry">
            <mxPoint as="offset"/>
          </mxGeometry>
        </mxCell>
        <mxCell id="n2ARnpzjk5nC_u5jBv1w-15" value="&lt;font style=&quot;font-size: 24px&quot;&gt;用户权限表结构关系&lt;/font&gt;" style="text;html=1;strokeColor=#d6b656;fillColor=#fff2cc;align=center;verticalAlign=middle;whiteSpace=wrap;rounded=0;" vertex="1" parent="1">
          <mxGeometry x="720" y="1190" width="283" height="50" as="geometry"/>
        </mxCell>
        <mxCell id="n2ARnpzjk5nC_u5jBv1w-16" value="StorageRackInfo（货架信息）" style="swimlane;fontStyle=0;childLayout=stackLayout;horizontal=1;startSize=26;fillColor=#e0e0e0;horizontalStack=0;resizeParent=1;resizeParentMax=0;resizeLast=0;collapsible=1;marginBottom=0;swimlaneFillColor=#ffffff;align=center;fontSize=14;" vertex="1" collapsed="1" parent="1">
          <mxGeometry x="420" y="1710" width="290" height="26" as="geometry">
            <mxRectangle x="320" y="1150" width="190" height="52" as="alternateBounds"/>
          </mxGeometry>
        </mxCell>
        <mxCell id="n2ARnpzjk5nC_u5jBv1w-17" value="StorageRackRegionInfo（货架区域信息）" style="swimlane;fontStyle=0;childLayout=stackLayout;horizontal=1;startSize=26;fillColor=#e0e0e0;horizontalStack=0;resizeParent=1;resizeParentMax=0;resizeLast=0;collapsible=1;marginBottom=0;swimlaneFillColor=#ffffff;align=center;fontSize=14;" vertex="1" collapsed="1" parent="1">
          <mxGeometry x="420" y="1800" width="290" height="26" as="geometry">
            <mxRectangle x="320" y="1150" width="190" height="52" as="alternateBounds"/>
          </mxGeometry>
        </mxCell>
        <mxCell id="n2ARnpzjk5nC_u5jBv1w-19" value="ReagentMaterialInfo（试剂原料信息）" style="swimlane;fontStyle=0;childLayout=stackLayout;horizontal=1;startSize=26;fillColor=#e0e0e0;horizontalStack=0;resizeParent=1;resizeParentMax=0;resizeLast=0;collapsible=1;marginBottom=0;swimlaneFillColor=#ffffff;align=center;fontSize=14;" vertex="1" collapsed="1" parent="1">
          <mxGeometry x="420" y="1890" width="290" height="26" as="geometry">
            <mxRectangle x="320" y="1150" width="190" height="52" as="alternateBounds"/>
          </mxGeometry>
        </mxCell>
        <mxCell id="n2ARnpzjk5nC_u5jBv1w-20" value="ReagentMaterialUseInfo（试剂原料使用表）" style="swimlane;fontStyle=0;childLayout=stackLayout;horizontal=1;startSize=26;fillColor=#e0e0e0;horizontalStack=0;resizeParent=1;resizeParentMax=0;resizeLast=0;collapsible=1;marginBottom=0;swimlaneFillColor=#ffffff;align=center;fontSize=14;" vertex="1" collapsed="1" parent="1">
          <mxGeometry x="840" y="1890" width="290" height="26" as="geometry">
            <mxRectangle x="320" y="1150" width="190" height="52" as="alternateBounds"/>
          </mxGeometry>
        </mxCell>
        <mxCell id="n2ARnpzjk5nC_u5jBv1w-22" value="ReagentSingleInfo（试剂单品信息）" style="swimlane;fontStyle=0;childLayout=stackLayout;horizontal=1;startSize=26;fillColor=#e0e0e0;horizontalStack=0;resizeParent=1;resizeParentMax=0;resizeLast=0;collapsible=1;marginBottom=0;swimlaneFillColor=#ffffff;align=center;fontSize=14;" vertex="1" collapsed="1" parent="1">
          <mxGeometry x="420" y="1980" width="290" height="26" as="geometry">
            <mxRectangle x="320" y="1150" width="190" height="52" as="alternateBounds"/>
          </mxGeometry>
        </mxCell>
        <mxCell id="n2ARnpzjk5nC_u5jBv1w-23" value="ReagentSingleLotNumInfo（试剂单品批号信息）" style="swimlane;fontStyle=0;childLayout=stackLayout;horizontal=1;startSize=26;fillColor=#e0e0e0;horizontalStack=0;resizeParent=1;resizeParentMax=0;resizeLast=0;collapsible=1;marginBottom=0;swimlaneFillColor=#ffffff;align=center;fontSize=14;" vertex="1" collapsed="1" parent="1">
          <mxGeometry x="840" y="1980" width="315" height="26" as="geometry">
            <mxRectangle x="320" y="1150" width="190" height="52" as="alternateBounds"/>
          </mxGeometry>
        </mxCell>
        <mxCell id="n2ARnpzjk5nC_u5jBv1w-24" value="ReagentPackageInfo（试剂包信息）" style="swimlane;fontStyle=0;childLayout=stackLayout;horizontal=1;startSize=26;fillColor=#e0e0e0;horizontalStack=0;resizeParent=1;resizeParentMax=0;resizeLast=0;collapsible=1;marginBottom=0;swimlaneFillColor=#ffffff;align=center;fontSize=14;" vertex="1" collapsed="1" parent="1">
          <mxGeometry x="420" y="2070" width="290" height="26" as="geometry">
            <mxRectangle x="320" y="1150" width="190" height="52" as="alternateBounds"/>
          </mxGeometry>
        </mxCell>
        <mxCell id="n2ARnpzjk5nC_u5jBv1w-25" value="ReagentOrderInfo（试剂订单信息）" style="swimlane;fontStyle=0;childLayout=stackLayout;horizontal=1;startSize=26;fillColor=#e0e0e0;horizontalStack=0;resizeParent=1;resizeParentMax=0;resizeLast=0;collapsible=1;marginBottom=0;swimlaneFillColor=#ffffff;align=center;fontSize=14;" vertex="1" collapsed="1" parent="1">
          <mxGeometry x="420" y="2160" width="290" height="26" as="geometry">
            <mxRectangle x="320" y="1150" width="190" height="52" as="alternateBounds"/>
          </mxGeometry>
        </mxCell>
        <mxCell id="n2ARnpzjk5nC_u5jBv1w-26" value="" style="fontSize=12;html=1;endArrow=ERoneToMany;exitX=0.5;exitY=1;exitDx=0;exitDy=0;entryX=0.5;entryY=0;entryDx=0;entryDy=0;" edge="1" parent="1" source="n2ARnpzjk5nC_u5jBv1w-16" target="n2ARnpzjk5nC_u5jBv1w-17">
          <mxGeometry width="100" height="100" relative="1" as="geometry">
            <mxPoint x="320" y="2310" as="sourcePoint"/>
            <mxPoint x="420" y="2210" as="targetPoint"/>
          </mxGeometry>
        </mxCell>
        <mxCell id="n2ARnpzjk5nC_u5jBv1w-27" value="" style="fontSize=12;html=1;endArrow=ERoneToMany;entryX=0.5;entryY=0;entryDx=0;entryDy=0;exitX=0.5;exitY=1;exitDx=0;exitDy=0;" edge="1" parent="1" source="n2ARnpzjk5nC_u5jBv1w-17" target="n2ARnpzjk5nC_u5jBv1w-19">
          <mxGeometry width="100" height="100" relative="1" as="geometry">
            <mxPoint x="670.5" y="1852" as="sourcePoint"/>
            <mxPoint x="670" y="1916" as="targetPoint"/>
          </mxGeometry>
        </mxCell>
        <mxCell id="n2ARnpzjk5nC_u5jBv1w-29" value="" style="fontSize=12;html=1;endArrow=ERoneToMany;entryX=0.5;entryY=1;entryDx=0;entryDy=0;exitX=0.5;exitY=0;exitDx=0;exitDy=0;" edge="1" parent="1" source="n2ARnpzjk5nC_u5jBv1w-22" target="n2ARnpzjk5nC_u5jBv1w-19">
          <mxGeometry width="100" height="100" relative="1" as="geometry">
            <mxPoint x="770" y="1852" as="sourcePoint"/>
            <mxPoint x="770" y="1916" as="targetPoint"/>
          </mxGeometry>
        </mxCell>
        <mxCell id="n2ARnpzjk5nC_u5jBv1w-30" value="" style="fontSize=12;html=1;endArrow=ERoneToMany;entryX=0.5;entryY=1;entryDx=0;entryDy=0;exitX=0.5;exitY=0;exitDx=0;exitDy=0;" edge="1" parent="1" source="n2ARnpzjk5nC_u5jBv1w-24" target="n2ARnpzjk5nC_u5jBv1w-22">
          <mxGeometry width="100" height="100" relative="1" as="geometry">
            <mxPoint x="640" y="2094" as="sourcePoint"/>
            <mxPoint x="640" y="2030" as="targetPoint"/>
          </mxGeometry>
        </mxCell>
        <mxCell id="n2ARnpzjk5nC_u5jBv1w-31" value="" style="fontSize=12;html=1;endArrow=ERoneToMany;entryX=0.5;entryY=1;entryDx=0;entryDy=0;exitX=0.5;exitY=0;exitDx=0;exitDy=0;" edge="1" parent="1" source="n2ARnpzjk5nC_u5jBv1w-25" target="n2ARnpzjk5nC_u5jBv1w-24">
          <mxGeometry width="100" height="100" relative="1" as="geometry">
            <mxPoint x="743.5" y="2096" as="sourcePoint"/>
            <mxPoint x="743.5" y="2032" as="targetPoint"/>
          </mxGeometry>
        </mxCell>
        <mxCell id="n2ARnpzjk5nC_u5jBv1w-32" value="" style="fontSize=12;html=1;endArrow=ERoneToMany;exitX=1;exitY=0.5;exitDx=0;exitDy=0;entryX=0;entryY=0.5;entryDx=0;entryDy=0;" edge="1" parent="1" source="n2ARnpzjk5nC_u5jBv1w-19" target="n2ARnpzjk5nC_u5jBv1w-20">
          <mxGeometry width="100" height="100" relative="1" as="geometry">
            <mxPoint x="790" y="1840" as="sourcePoint"/>
            <mxPoint x="790" y="1904" as="targetPoint"/>
          </mxGeometry>
        </mxCell>
        <mxCell id="n2ARnpzjk5nC_u5jBv1w-35" value="" style="edgeStyle=entityRelationEdgeStyle;fontSize=12;html=1;endArrow=ERmandOne;startArrow=ERmandOne;entryX=0;entryY=0.5;entryDx=0;entryDy=0;exitX=1;exitY=0.5;exitDx=0;exitDy=0;" edge="1" parent="1" source="n2ARnpzjk5nC_u5jBv1w-22" target="n2ARnpzjk5nC_u5jBv1w-23">
          <mxGeometry width="100" height="100" relative="1" as="geometry">
            <mxPoint x="320" y="2310" as="sourcePoint"/>
            <mxPoint x="420" y="2210" as="targetPoint"/>
          </mxGeometry>
        </mxCell>
        <mxCell id="n2ARnpzjk5nC_u5jBv1w-36" value="1:1" style="text;html=1;align=center;verticalAlign=middle;resizable=0;points=[];labelBackgroundColor=#ffffff;" vertex="1" connectable="0" parent="n2ARnpzjk5nC_u5jBv1w-35">
          <mxGeometry y="1" relative="1" as="geometry">
            <mxPoint as="offset"/>
          </mxGeometry>
        </mxCell>
      </root>
    </mxGraphModel>
  </diagram>
</mxfile>
